<?xml version="1.0" encoding="UTF-8"?>
<svg width="128pt" height="128pt" version="1.1" viewBox="0 0 128 128" xmlns="http://www.w3.org/2000/svg">
 <path d="m77.637 95.684v-20.371c-0.023438-2.8242 1.4336-5.5781 4.0547-7.0938 3.875-2.2383 8.8359-0.90625 11.07 2.9688 0.73438 1.2734 1.0859 2.668 1.0859 4.043v25.086 0.13672c-0.015625 1.4453-0.40625 2.7969-1.0859 3.9648-0.67578 1.168-1.6484 2.1875-2.8906 2.9219-0.039063 0.023437-0.078125 0.046875-0.11719 0.070312l-21.727 12.543c-1.1914 0.6875-2.5703 1.082-4.043 1.082-4.4727 0-8.1055-3.6328-8.1055-8.1055 0-3.0234 1.6602-5.6641 4.1133-7.0547l17.641-10.184zm-22.871-56.156c0-1.375 0.35156-2.7695 1.0859-4.043 0.73438-1.2734 1.7695-2.2734 2.957-2.9609l21.727-12.543c0.039063-0.023438 0.078125-0.046875 0.11719-0.066407 1.2578-0.70703 2.625-1.043 3.9766-1.043 1.3516-0.003906 2.7188 0.33203 3.9727 1.043 0.039063 0.023438 0.078126 0.042969 0.11719 0.066407l21.727 12.543c1.1914 0.6875 2.2227 1.6875 2.957 2.9609 2.2383 3.875 0.90625 8.8359-2.9688 11.074-2.6172 1.5117-5.7344 1.3945-8.168-0.035156l-17.641-10.184-11.391 6.5742v45.559c0 1.375-0.35156 2.7695-1.0859 4.043-0.73438 1.2734-1.7695 2.2734-2.957 2.9609l-21.727 12.543c-0.039063 0.023438-0.078125 0.046875-0.11719 0.066407-1.2578 0.70703-2.625 1.043-3.9766 1.043-1.3516 0.003906-2.7188-0.33203-3.9727-1.043-0.039063-0.023438-0.078126-0.042969-0.11719-0.066407l-21.727-12.543c-1.1914-0.6875-2.2227-1.6875-2.957-2.9609-2.2383-3.875-0.90625-8.8359 2.9688-11.074 2.6172-1.5117 5.7344-1.3945 8.168 0.035156l17.641 10.184 11.391-6.5742zm59.727 48.945c0 1.375-0.35156 2.7695-1.0859 4.043-2.2383 3.875-7.1992 5.2031-11.074 2.9688-2.6172-1.5117-4.0742-4.2695-4.0508-7.0938v-20.371l-17.645-10.184c-2.457-1.3945-4.1133-4.0312-4.1133-7.0547 0-4.4727 3.6328-8.1055 8.1055-8.1055 1.4727 0 2.8516 0.39453 4.043 1.082l21.727 12.543c0.039062 0.023438 0.078124 0.046875 0.11719 0.070313 1.2422 0.73438 2.2148 1.7539 2.8906 2.9219s1.0703 2.5195 1.0859 3.9648v0.13672 25.086zm-84.773-28.488 17.645 10.184c2.457 1.3945 4.1133 4.0312 4.1133 7.0547 0 4.4727-3.6328 8.1055-8.1055 8.1055-1.4727 0-2.8516-0.39453-4.043-1.082l-21.727-12.543c-0.039062-0.023437-0.078124-0.046875-0.11719-0.070313-1.2422-0.73437-2.2148-1.7539-2.8906-2.9219-0.67578-1.168-1.0703-2.5195-1.0859-3.9648v-0.13672-25.086c0-1.375 0.35156-2.7695 1.0859-4.043 2.2383-3.875 7.1992-5.2031 11.074-2.9688 2.6172 1.5117 4.0742 4.2695 4.0508 7.0938zm20.645-27.664v20.371c0.023438 2.8242-1.4336 5.5781-4.0547 7.0938-3.875 2.2383-8.8359 0.90625-11.07-2.9688-0.73438-1.2734-1.0859-2.668-1.0859-4.043v-25.086-0.13672c0.015625-1.4453 0.40625-2.7969 1.0859-3.9648 0.67578-1.168 1.6484-2.1875 2.8906-2.9219 0.039063-0.023437 0.078125-0.046874 0.11719-0.070312l21.727-12.543c1.1914-0.6875 2.5703-1.082 4.043-1.082 4.4727 0 8.1055 3.6328 8.1055 8.1055 0 3.0234-1.6602 5.6641-4.1133 7.0547l-17.641 10.184z" fill="#fff" fill-rule="evenodd"/>
</svg>
