<?xml version="1.0" encoding="UTF-8"?>
<svg height="24pt" version="1.1" viewBox="0 0 128 128" xmlns="http://www.w3.org/2000/svg">
 <g fill="#1111">
  <path d="m114.82 87.105v22.496c0 0.44922-0.0625 0.86328-0.16016 1.2461-0.44922 2.207-2.3984 3.8711-4.7031 3.8711h-91.938c-2.4648 0-4.5117-1.8867-4.7695-4.2891-0.0625-0.28906-0.0625-0.54297-0.0625-0.86328v-22.496c0-2.6562 2.1758-4.8008 4.8008-4.8008 1.3125 0 2.5273 0.54297 3.3906 1.4062s1.4062 2.0781 1.4062 3.3906v18.016h82.465v-18.016c0-2.6562 2.1758-4.8008 4.8008-4.8008 1.3125 0 2.5273 0.54297 3.3906 1.4062 0.83594 0.90234 1.3789 2.1211 1.3789 3.4336z"/>
  <path d="m91.68 64.574-23.586 23.586c-0.03125 0.0625-0.097656 0.097656-0.12891 0.12891-0.86328 0.86328-1.9844 1.4062-3.1055 1.5664-0.097656 0-0.19141 0.03125-0.28906 0.03125-0.19141 0.03125-0.38281 0.03125-0.57422 0.03125l-0.54297-0.03125c-0.097656 0-0.19141-0.03125-0.28906-0.03125-1.1523-0.16016-2.2383-0.70312-3.1055-1.5664l-23.715-23.715c-1.0898-1.0898-1.6328-2.5273-1.6328-3.9688 0-1.4414 0.54297-2.8789 1.6328-3.9688 2.1758-2.1758 5.7266-2.1758 7.9375 0l14.176 14.176 0.007813-51.934c0-3.0703 2.5273-5.6016 5.6016-5.6016 1.5352 0 2.9453 0.64062 3.9688 1.6328 1.0234 1.0234 1.6328 2.3984 1.6328 3.9688v51.938l14.176-14.176c2.1758-2.1758 5.7266-2.1758 7.9375 0 2.0742 2.207 2.0742 5.7578-0.10156 7.9336z"/>
 </g>
</svg>
