<?xml version="1.0" encoding="UTF-8"?>
<svg width="128pt" height="128pt" version="1.1" viewBox="0 0 128 128" xmlns="http://www.w3.org/2000/svg">
 <path d="m121.68 64c0.011718-19.242-9.5703-37.223-25.547-47.941-15.98-10.715-36.25-12.762-54.047-5.4531-17.797 7.3125-30.781 23.016-34.609 41.871-3.832 18.855 1.9883 38.379 15.523 52.055h0.011719l0.035156 0.035156h-0.003906c10.82 10.945 25.57 17.105 40.965 17.105 15.391 0 30.141-6.1602 40.961-17.105l0.035156-0.035156h0.011719-0.003906c10.703-10.77 16.695-25.348 16.668-40.531zm-57.68-49.68c12.598-0.007812 24.73 4.7773 33.934 13.379 9.2031 8.6055 14.789 20.387 15.633 32.957 0.83984 12.57-3.1289 24.988-11.102 34.742-9.4141-11.578-23.543-18.301-38.465-18.301s-29.051 6.7227-38.465 18.301c-7.9727-9.7539-11.941-22.172-11.102-34.742 0.84375-12.57 6.4297-24.352 15.633-32.957 9.2031-8.6016 21.336-13.387 33.934-13.379zm-23.219 34.699c0-6.1562 2.4453-12.062 6.8008-16.418 4.3555-4.3555 10.258-6.8008 16.418-6.8008s12.062 2.4453 16.418 6.8008c4.3555 4.3555 6.8008 10.262 6.8008 16.418 0 6.1602-2.4453 12.066-6.8008 16.418-4.3555 4.3555-10.258 6.8008-16.418 6.8008-6.1562-0.003906-12.059-2.4531-16.41-6.8086-4.3555-4.3516-6.8047-10.254-6.8086-16.41z" fill="#141414"/>
</svg>
